<svg aria-label="Next.js Conf Ticket" viewBox="0 0 304 560" fill="none" xmlns="http://www.w3.org/2000/svg">
  <path d="M152 34c12.873 0 24.073-7.155 29.843-17.696 2.047-3.74 4.677-7.359 7.781-10.02C192.718 3.63 196.19 2 200 2h88c7.732 0 14 6.268 14 14v528c0 7.732-6.268 14-14 14h-88c-3.81 0-7.282-1.63-10.376-4.283-3.104-2.662-5.734-6.281-7.781-10.021C176.073 533.155 164.873 526 152 526c-12.873 0-24.073 7.155-29.843 17.696-2.047 3.74-4.677 7.359-7.781 10.021C111.282 556.37 107.81 558 104 558H16c-7.732 0-14-6.268-14-14V16C2 8.268 8.268 2 16 2h88c3.81 0 7.282 1.63 10.376 4.283 3.104 2.662 5.734 6.281 7.781 10.02C127.927 26.846 139.127 34 152 34z" fill="#000" stroke="#fff" stroke-width="4"/>
  <path stroke="#444" stroke-dasharray="4 4" d="M4 412.5h295"/>
  <path d="M46.578 311.625v7.883c0 .265-.042.515-.125.75a1.628 1.628 0 01-.867.992 1.652 1.652 0 01-.688.141c-.312 0-.578-.042-.796-.125a1.212 1.212 0 01-.532-.383 1.476 1.476 0 01-.234-.516 2.884 2.884 0 01-.078-.711h-2.203c.005.589.101 1.102.289 1.539.187.438.45.8.789 1.086.333.292.734.511 1.203.657.469.145.99.218 1.562.218.542 0 1.047-.088 1.516-.265a3.7 3.7 0 001.234-.75c.35-.323.623-.706.82-1.149a3.64 3.64 0 00.313-1.484l-.008-7.883h-2.195zM56.414 323h1.969v-8.453h-2.18v5.93a1.82 1.82 0 01-.242.367c-.094.109-.2.203-.32.281-.141.089-.305.156-.493.203-.182.047-.388.07-.617.07-.255 0-.471-.031-.648-.093a.9.9 0 01-.43-.313 1.4 1.4 0 01-.242-.562 4.533 4.533 0 01-.07-.868v-5.015h-2.172v5c0 .641.07 1.19.21 1.648.146.453.35.826.61 1.117.26.297.573.514.938.649a3.44 3.44 0 001.203.203c.479 0 .919-.12 1.32-.359.406-.24.753-.571 1.04-.993l.124 1.188zm4.094 0h2.18v-6.008c.072-.114.153-.219.242-.312a1.44 1.44 0 01.297-.242c.135-.094.289-.165.46-.211.178-.047.37-.071.579-.071.25 0 .474.026.671.078.198.047.368.133.508.258s.248.297.32.516c.079.213.118.487.118.82V323h2.172v-5.203c0-.615-.073-1.136-.22-1.563-.14-.432-.338-.786-.593-1.062a2.343 2.343 0 00-.922-.594 3.5 3.5 0 00-1.172-.187c-.333 0-.648.047-.945.14-.297.094-.57.229-.82.407a3.288 3.288 0 00-.774.781l-.132-1.172h-1.97V323zm13.71.156c.819 0 1.527-.159 2.126-.476.599-.318 1.036-.672 1.312-1.063l-1.086-1.172c-.25.323-.575.565-.976.727a3.306 3.306 0 01-1.242.242c-.303 0-.581-.047-.836-.141a2.148 2.148 0 01-.68-.398 2.103 2.103 0 01-.461-.555 3.045 3.045 0 01-.281-.82v-.023h5.734v-.922c0-.62-.086-1.185-.258-1.696a3.697 3.697 0 00-.75-1.32 3.366 3.366 0 00-1.218-.844c-.474-.203-1.016-.304-1.625-.304-.589 0-1.133.106-1.633.32-.5.213-.932.513-1.297.898a4.107 4.107 0 00-.852 1.383 4.909 4.909 0 00-.304 1.766v.312c0 .568.101 1.102.304 1.602.209.495.503.924.883 1.289.38.37.836.661 1.367.875.532.213 1.123.32 1.774.32zm-.257-7.008c.276 0 .518.045.727.133.213.084.393.198.539.344a1.695 1.695 0 01.469 1.18v.172h-3.563c.052-.276.13-.526.234-.75.104-.224.235-.417.39-.579.152-.161.329-.283.532-.367.203-.088.427-.133.672-.133zM94.656 323v-11.375h-.117l-4.953 1.789v1.891l2.875-1.032V323h2.195zm4.399-5.602l1.734.43c.083-.083.172-.161.266-.234.093-.078.2-.146.32-.203.12-.058.258-.105.414-.141a2.49 2.49 0 01.555-.055c.317 0 .594.05.828.149.234.099.43.239.586.422.156.182.271.401.344.656.078.25.117.526.117.828 0 .307-.031.594-.094.859a2.04 2.04 0 01-.273.688c-.131.193-.3.344-.508.453a1.553 1.553 0 01-.742.164c-.474 0-.865-.135-1.172-.406-.302-.271-.479-.654-.532-1.149h-2.14c.015.526.133.995.351 1.407.224.406.513.75.868 1.031.354.281.757.495 1.211.641.458.145.932.218 1.421.218.646 0 1.206-.101 1.68-.304a3.32 3.32 0 001.18-.829 3.38 3.38 0 00.695-1.211 4.61 4.61 0 00.227-1.453c0-.599-.079-1.135-.235-1.609a3.364 3.364 0 00-.672-1.203 2.887 2.887 0 00-1.093-.75 3.787 3.787 0 00-1.461-.266c-.386 0-.727.05-1.024.149a3.794 3.794 0 00-.687.289l.273-2.5h4.524v-1.844h-6.313l-.648 5.773zm13.422 5.266v-1.375h-1.571v1.399c0 .442-.052.869-.156 1.281a3.62 3.62 0 01-.531 1.164l.898.492c.417-.37.748-.826.992-1.367.245-.542.368-1.073.368-1.594zm17.109-.945h-.148v1.289h.148c.937 0 1.732-.128 2.383-.383.656-.26 1.169-.599 1.539-1.016a5.067 5.067 0 001.203-2.359 12.9 12.9 0 00.281-2.656v-.524c0-.619-.086-1.239-.258-1.859-.172-.625-.429-1.146-.773-1.563a3.252 3.252 0 00-1.086-.851c-.427-.219-.932-.328-1.516-.328-.583 0-1.096.107-1.539.32-.437.208-.802.49-1.093.844a3.683 3.683 0 00-.672 1.258 5.12 5.12 0 00-.219 1.515c0 .459.062.914.187 1.367.125.454.321.86.586 1.219.266.36.602.651 1.008.875.412.219.899.328 1.461.328a3.092 3.092 0 001.484-.336 2.89 2.89 0 00.547-.359c.162-.141.305-.289.43-.445v.015a6.405 6.405 0 01-.227 1.391c-.124.448-.367.867-.726 1.258-.297.317-.69.565-1.18.742-.484.172-1.091.258-1.82.258zm1.726-3.719c-.348 0-.653-.076-.914-.227a2.008 2.008 0 01-.632-.609c-.172-.25-.3-.534-.383-.852a3.887 3.887 0 01-.125-.984c0-.375.047-.724.14-1.047.094-.328.232-.612.414-.851.178-.235.396-.42.657-.555.26-.135.56-.203.898-.203.297 0 .576.073.836.219.266.145.5.354.703.625.198.276.354.612.469 1.007.12.396.18.847.18 1.352v.469a2.506 2.506 0 01-.367.672 2.706 2.706 0 01-.516.515 2.19 2.19 0 01-1.36.469zm11.883 5h1.508v-.125a3.954 3.954 0 01-.219-.82 5.577 5.577 0 01-.078-.899v-3.929c0-.474-.086-.888-.258-1.243a2.552 2.552 0 00-.703-.89 3.066 3.066 0 00-1.07-.524 4.79 4.79 0 00-1.336-.179c-.526 0-.997.073-1.414.218-.411.146-.76.336-1.047.571a2.621 2.621 0 00-.672.804 2.056 2.056 0 00-.234.907h1.453c0-.177.042-.347.125-.508.089-.167.211-.31.367-.43s.347-.216.571-.289c.229-.073.486-.109.773-.109.307 0 .583.039.828.117.25.078.461.187.633.328.172.146.305.32.398.523.094.204.141.433.141.688v.664h-1.578c-.589 0-1.123.057-1.602.172-.474.114-.88.286-1.219.515a2.503 2.503 0 00-.789.876c-.182.348-.273.755-.273 1.218 0 .354.068.685.203.992.141.303.339.563.594.782.25.224.555.401.914.531.365.13.771.195 1.219.195.276 0 .536-.028.781-.086a3.393 3.393 0 001.281-.578c.182-.13.347-.268.492-.414.016.177.039.349.071.516.036.161.083.297.14.406zm-2.554-1.102c-.282 0-.529-.036-.743-.109a1.465 1.465 0 01-.531-.305 1.226 1.226 0 01-.32-.453 1.6 1.6 0 01-.102-.578c0-.219.039-.414.117-.586.084-.172.204-.32.36-.445.219-.177.513-.307.883-.391a5.782 5.782 0 011.312-.133h1.344v1.711a2.05 2.05 0 01-.344.485 2.573 2.573 0 01-.515.406c-.204.12-.428.216-.672.289a2.75 2.75 0 01-.789.109zm7.273-7.351h-1.297V323h1.375v-6.727c.031-.083.07-.161.117-.234a.882.882 0 01.5-.359c.131-.042.282-.063.453-.063.157 0 .292.021.407.063.12.036.219.096.297.179a.776.776 0 01.179.336c.042.136.063.292.063.469V323h1.375v-6.328-.078-.078c.015-.131.047-.248.094-.352a.905.905 0 01.195-.289.907.907 0 01.312-.187c.125-.047.274-.071.446-.071.161 0 .302.021.422.063a.776.776 0 01.312.187.914.914 0 01.18.336c.041.136.062.292.062.469V323h1.375v-6.312c0-.407-.047-.758-.14-1.055a1.86 1.86 0 00-.407-.735 1.535 1.535 0 00-.593-.375 2.236 2.236 0 00-.789-.132 2.313 2.313 0 00-.594.086 2.022 2.022 0 00-.485.211 2.004 2.004 0 00-.578.609 1.544 1.544 0 00-.211-.352 1.28 1.28 0 00-.265-.265 1.482 1.482 0 00-.477-.211 2.13 2.13 0 00-.601-.078c-.396.005-.735.091-1.016.257a1.92 1.92 0 00-.672.696l-.039-.797zm20.133 3.891h2.242c.51-.006.992-.084 1.445-.235.459-.151.86-.37 1.204-.656.343-.287.614-.638.812-1.055.203-.422.305-.906.305-1.453s-.102-1.031-.305-1.453a3.062 3.062 0 00-.812-1.063 3.642 3.642 0 00-1.204-.656 4.846 4.846 0 00-1.445-.242h-3.687V323h1.445v-4.562zm0-1.188v-4.438h2.242c.333.006.641.06.922.165.286.104.534.252.742.445.203.193.362.427.477.703.119.276.179.586.179.93 0 .343-.06.651-.179.922a1.928 1.928 0 01-.485.679 2.243 2.243 0 01-.734.438 2.892 2.892 0 01-.922.156h-2.242zm15.703-4.391v-1.234h-8.438v1.234h3.516V323h1.406v-10.141h3.516zm15.711 13.344v-14.578h-1.359v14.578h1.359zm22.453-8.234v-1.297a8.413 8.413 0 00-.109-1.234 6.643 6.643 0 00-.297-1.204 5.54 5.54 0 00-.531-1.078 3.767 3.767 0 00-.75-.883 3.276 3.276 0 00-1.008-.585 3.53 3.53 0 00-1.274-.219c-.468 0-.893.073-1.273.219-.375.14-.708.335-1 .585a4.074 4.074 0 00-.758.891c-.208.333-.38.693-.516 1.078-.14.386-.244.787-.312 1.203a8.984 8.984 0 00-.102 1.227v1.297c.006.406.042.815.11 1.226.067.412.172.81.312 1.196.136.385.31.747.524 1.086.213.333.466.625.758.875.291.25.624.447 1 .593.38.141.804.211 1.273.211.469 0 .891-.07 1.266-.211.38-.146.716-.343 1.007-.593a3.78 3.78 0 00.75-.875 5.18 5.18 0 00.524-1.079 6.63 6.63 0 00.297-1.195c.067-.417.104-.828.109-1.234zm-1.43-1.313v1.313a9.972 9.972 0 01-.054.851 4.95 4.95 0 01-.453 1.711 2.61 2.61 0 01-.454.688 2.094 2.094 0 01-.671.484c-.256.12-.553.18-.891.18-.339 0-.635-.06-.891-.18a2.132 2.132 0 01-.664-.484 2.615 2.615 0 01-.468-.696 4.887 4.887 0 01-.305-.835 6.166 6.166 0 01-.172-.876 9.939 9.939 0 01-.055-.843v-1.313c.005-.265.024-.544.055-.836a6.36 6.36 0 01.172-.882 4.41 4.41 0 01.297-.821c.125-.265.281-.5.468-.703a2.057 2.057 0 011.547-.656c.339 0 .636.06.891.18.255.114.476.27.664.468.188.203.344.438.469.703.125.261.226.534.304.821.073.291.125.586.157.882.031.292.049.573.054.844zm3.641 6.344h1.445v-6.062c.099-.183.214-.349.344-.5.135-.152.281-.284.438-.399.192-.13.403-.232.632-.305.23-.078.477-.117.743-.117.307 0 .578.037.812.11.24.072.443.19.609.351.162.162.284.373.368.633.083.26.125.578.125.953V323h1.445v-5.367c0-.563-.07-1.047-.211-1.453a2.62 2.62 0 00-.586-1.016 2.297 2.297 0 00-.93-.586 3.642 3.642 0 00-1.203-.187c-.328.005-.64.054-.937.148a3.06 3.06 0 00-1.289.773 3.717 3.717 0 00-.407.485l-.101-1.25h-1.297V323zm9.836-12v1.258h2.875v9.492h-2.875V323h7.078v-1.25h-2.758V311h-4.32zm9.609 3.547v1.258h2.875v5.945h-2.875V323h7.078v-1.25h-2.757v-7.203h-4.321zm2.688-2.219c0 .234.07.43.211.586.146.156.364.234.656.234.286 0 .503-.078.648-.234a.825.825 0 00.219-.586c0-.13-.021-.25-.062-.359a.673.673 0 00-.188-.274.683.683 0 00-.258-.156.955.955 0 00-.359-.062c-.135 0-.258.02-.367.062a.748.748 0 00-.446.438 1.112 1.112 0 00-.054.351zM252.953 323h1.445v-6.062c.099-.183.214-.349.344-.5.136-.152.281-.284.438-.399.192-.13.403-.232.632-.305.23-.078.477-.117.743-.117.307 0 .578.037.812.11.24.072.443.19.61.351.161.162.283.373.367.633.083.26.125.578.125.953V323h1.445v-5.367c0-.563-.07-1.047-.211-1.453a2.62 2.62 0 00-.586-1.016 2.3 2.3 0 00-.929-.586 3.652 3.652 0 00-1.204-.187c-.328.005-.64.054-.937.148a3.06 3.06 0 00-1.289.773 3.71 3.71 0 00-.406.485l-.102-1.25h-1.297V323zm13.344.156c.823 0 1.513-.164 2.07-.492.563-.333.985-.713 1.266-1.141l-.883-.687a2.98 2.98 0 01-1 .828 2.942 2.942 0 01-1.375.313c-.391 0-.747-.073-1.07-.219a2.462 2.462 0 01-.828-.602 2.753 2.753 0 01-.532-.828 3.843 3.843 0 01-.242-1.086v-.054h6.039v-.649c0-.588-.075-1.135-.226-1.641a3.729 3.729 0 00-.672-1.32 3.106 3.106 0 00-1.141-.867c-.453-.214-.984-.32-1.594-.32-.484 0-.958.099-1.421.297a3.77 3.77 0 00-1.227.851 4.197 4.197 0 00-.875 1.375c-.219.537-.328 1.146-.328 1.828v.328c0 .589.099 1.133.297 1.633.198.5.474.932.828 1.297.354.365.778.648 1.273.852.5.203 1.047.304 1.641.304zm-.188-7.578c.37 0 .688.068.953.203.271.136.495.313.672.531.177.219.315.48.414.782.099.297.149.575.149.836v.07h-4.547c.057-.391.156-.734.297-1.031.146-.302.323-.558.531-.766.208-.203.443-.357.703-.461.261-.109.537-.164.828-.164zM139.65 262.758h-6.311c-.06.988-.225 1.834-.494 2.538-.27.704-.637 1.28-1.101 1.729a4.222 4.222 0 01-1.684.989c-.659.209-1.4.314-2.224.314a6.569 6.569 0 01-1.685-.202 4.368 4.368 0 01-1.347-.674 4.571 4.571 0 01-1.011-1.011 6.729 6.729 0 01-.741-1.392c-.3-.764-.524-1.655-.674-2.673a27.26 27.26 0 01-.202-3.504v-4.447c0-.959.045-1.849.135-2.673.089-.839.232-1.602.426-2.291.255-.884.592-1.655 1.011-2.314.434-.673.958-1.19 1.572-1.549a4.45 4.45 0 011.168-.472 5.921 5.921 0 011.393-.157c.928 0 1.722.127 2.381.382a4.179 4.179 0 011.684 1.078c.435.494.764 1.108.989 1.842.239.733.389 1.587.449 2.56h6.289c-.15-1.707-.509-3.242-1.078-4.604-.569-1.363-1.348-2.516-2.336-3.459-.988-.944-2.186-1.67-3.594-2.179-1.393-.509-2.987-.764-4.784-.764-1.213 0-2.351.157-3.414.472a10.793 10.793 0 00-2.898 1.303 12.152 12.152 0 00-2.65 2.47 12.446 12.446 0 00-1.887 3.325 15.942 15.942 0 00-.943 3.324 21.444 21.444 0 00-.315 3.751v4.402c0 1.408.113 2.74.337 3.998a17.69 17.69 0 001.011 3.459 14.169 14.169 0 001.64 2.875c.659.869 1.407 1.61 2.246 2.224a10.733 10.733 0 003.077 1.527c1.153.344 2.403.517 3.751.517 1.707 0 3.264-.247 4.672-.742 1.407-.509 2.62-1.227 3.638-2.156 1.019-.928 1.827-2.051 2.426-3.369.614-1.318.974-2.8 1.078-4.447zm26.437-2.201v-7.817c0-2.111-.247-3.968-.741-5.57-.494-1.617-1.198-2.972-2.112-4.066a8.973 8.973 0 00-3.369-2.448c-1.317-.554-2.8-.831-4.447-.831-1.632 0-3.107.277-4.425.831a8.819 8.819 0 00-3.324 2.448c-.928 1.094-1.64 2.449-2.134 4.066-.494 1.602-.741 3.459-.741 5.57v7.817c0 2.111.247 3.975.741 5.592.509 1.603 1.228 2.943 2.156 4.021a8.692 8.692 0 003.347 2.471c1.318.554 2.793.831 4.425.831 1.647 0 3.129-.277 4.447-.831a8.692 8.692 0 003.347-2.471c.913-1.078 1.61-2.418 2.089-4.021.494-1.617.741-3.481.741-5.592zm-15.004-2.696v-1.055-5.054c0-1.213.09-2.261.27-3.145.194-.883.486-1.602.876-2.156a3.402 3.402 0 011.325-1.168c.539-.269 1.16-.404 1.864-.404.629 0 1.19.105 1.685.314.509.195.935.502 1.28.921.449.524.786 1.228 1.011 2.112.239.868.374 1.916.404 3.144l-8.715 6.491zm8.715 3.639c0 1.213-.097 2.269-.292 3.167-.18.883-.457 1.61-.831 2.179-.36.539-.809.943-1.348 1.213-.539.254-1.16.381-1.864.381-.764 0-1.423-.149-1.977-.449-.554-.299-1.01-.756-1.37-1.37-.314-.509-.561-1.145-.741-1.909-.165-.764-.262-1.64-.292-2.628l8.715-6.469v5.885zm33.961 11.5v-32.703h-6.334l-.023 21.001-9.029-21.001h-6.356V273h6.356v-21.091L187.47 273h6.289zm26.818-13.544v-5.121h-14.015v-8.895h15.767v-5.143h-22.101V273h6.334v-13.544h14.015zm27.739 18.418V273h-20.484v4.874h20.484z" fill="#fff"/>
  <path fill-rule="evenodd" clip-rule="evenodd" d="M116.823 186.865h2.671l11.832 16.426 12.095-16.426L159.872 166l-27.027 39.018 13.927 19.199h-2.775l-12.671-17.473-12.722 17.473h-2.723l14.032-19.199-13.09-18.153zm-27.382 0h25.131v1.988H91.744v14.962h21.467v1.987H91.744v16.427h23.09v1.988H89.441v-37.352zm58.326 0v1.988h13.141v35.364h2.304v-35.364h13.194v-1.988h-28.639z" fill="#fff"/>
  <path d="M58 186.865h2.88L100.588 246l-16.41-21.783-23.77-34.527-.104 34.527H58v-37.352z" fill="#fff"/>
  <path fill-rule="evenodd" clip-rule="evenodd" d="M188.131 221.729c-1.793 0-2.998-.921-3.087-2.362h1.244c.106.765.857 1.251 1.938 1.251 1.009 0 1.749-.519 1.749-1.234 0-.614-.471-.983-1.541-1.234l-1.042-.251c-1.463-.341-2.13-1.044-2.13-2.228 0-1.435 1.177-2.39 2.942-2.39 1.642 0 2.841.955 2.914 2.312h-1.222c-.118-.743-.767-1.206-1.709-1.206-.992 0-1.653.475-1.653 1.2 0 .575.426.905 1.479 1.151l.891.217c1.659.386 2.343 1.056 2.343 2.267 0 1.541-1.2 2.507-3.116 2.507zm-9.693-2.289c0 1.385 1.003 2.289 2.465 2.289 1.558 0 2.499-.932 2.499-2.551v-5.701h-1.255v5.695c0 .899-.454 1.379-1.255 1.379-.717 0-1.205-.447-1.222-1.111h-1.232zm-2.264 2.189a.81.81 0 00.824-.832.81.81 0 00-.824-.832.812.812 0 00-.824.832c0 .469.353.832.824.832z" fill="#fff"/>
  <g clip-path="url(#main-clip0)">
    <path d="M214.93 396.387c5.604 0 10.147-4.542 10.147-10.146 0-5.604-4.543-10.146-10.147-10.146-5.603 0-10.146 4.542-10.146 10.146 0 5.604 4.543 10.146 10.146 10.146z" fill="#000"/>
    <path d="M221.387 388.086a6.457 6.457 0 00-12.913 0h1.844a4.612 4.612 0 119.224 0" fill="#000" fill-opacity=".1"/>
    <path d="M215.392 391.038a3.506 3.506 0 10-.001-7.011 3.506 3.506 0 00.001 7.011z" fill="#000" fill-opacity=".1"/>
    <path d="M214.93 390.022a3.781 3.781 0 10.001-7.563 3.781 3.781 0 00-.001 7.563z" fill="#fff"/>
    <path d="M224.154 381.628c-2.539-5.109-8.739-7.192-13.849-4.653a10.332 10.332 0 00-3.952 3.454l4.15 7.195a4.612 4.612 0 014.335-5.996" fill="#fff"/>
    <path d="M206.352 380.43c-3.177 4.739-1.91 11.156 2.829 14.333a10.326 10.326 0 004.919 1.716l4.336-7.379a4.612 4.612 0 01-7.933-1.475" fill="#fff"/>
    <path d="M214.101 396.479c5.689.43 10.649-3.833 11.08-9.522a10.326 10.326 0 00-1.027-5.328h-9.315a4.612 4.612 0 013.597 7.471" fill="#fff"/>
    <path d="M206.353 380.43l4.15 7.195a4.612 4.612 0 01.185-3.136l-4.151-4.336" fill="url(#main-paint0_linear)"/>
    <path d="M214.101 396.48l4.335-7.379a4.62 4.62 0 01-2.675 1.568l-1.845 5.811" fill="url(#main-paint1_linear)"/>
    <path d="M224.154 381.629h-9.316a4.595 4.595 0 011.998.466c.623.303 1.17.743 1.599 1.287l5.903-1.476" fill="url(#main-paint2_linear)"/>
    <path d="M206.272 380.346l4.137 7m7.954 1.591l-4.454 7.954m.954-14.954l9.718-.319" stroke="#000" stroke-width=".636" stroke-linecap="round" stroke-linejoin="round"/>
  </g>
  <path fill-rule="evenodd" clip-rule="evenodd" d="M172.524 377.954l9.524 16.496H163l9.524-16.496z" fill="#fff"/>
  <path d="M193.324 382.593v7.217M189.716 386.202h7.217" stroke="#EAEAEA" stroke-width=".773" stroke-linecap="round" stroke-linejoin="round"/>
  <path d="M86.004 392h1.845v-4.325h4.718V392h1.85v-10.182h-1.85v4.311h-4.718v-4.311h-1.845V392zm13.67.149c2.237 0 3.659-1.576 3.659-3.937 0-2.367-1.422-3.948-3.66-3.948-2.237 0-3.658 1.581-3.658 3.948 0 2.361 1.421 3.937 3.659 3.937zm.01-1.442c-1.238 0-1.845-1.103-1.845-2.5s.607-2.516 1.845-2.516c1.218 0 1.824 1.119 1.824 2.516s-.606 2.5-1.824 2.5zm11.212-4.325c-.249-1.293-1.283-2.118-3.073-2.118-1.839 0-3.092.905-3.087 2.317-.005 1.114.681 1.849 2.148 2.153l1.302.273c.701.154 1.029.438 1.029.87 0 .522-.566.915-1.421.915-.826 0-1.363-.358-1.517-1.044l-1.755.169c.224 1.402 1.402 2.232 3.276 2.232 1.91 0 3.257-.989 3.262-2.436-.005-1.089-.706-1.755-2.148-2.068l-1.302-.279c-.776-.174-1.084-.442-1.079-.884-.005-.518.566-.875 1.317-.875.83 0 1.268.452 1.407.954l1.641-.179zm5.461-2.018h-1.506v-1.83h-1.8v1.83h-1.084v1.392h1.084v4.245c-.01 1.437 1.034 2.143 2.386 2.103a3.609 3.609 0 001.059-.179l-.303-1.407c-.099.025-.303.07-.527.07-.452 0-.815-.159-.815-.885v-3.947h1.506v-1.392zm4.804 7.785c1.78 0 3.003-.87 3.321-2.197l-1.681-.189c-.243.646-.84.984-1.615.984-1.164 0-1.934-.765-1.949-2.073h5.319v-.552c0-2.68-1.61-3.858-3.49-3.858-2.187 0-3.614 1.606-3.614 3.963 0 2.396 1.407 3.922 3.709 3.922zm-1.919-4.688c.055-.974.775-1.795 1.849-1.795 1.034 0 1.73.756 1.74 1.795h-3.589zm9.671 4.673c1.312 0 1.904-.78 2.187-1.337h.11V392h1.77v-10.182h-1.805v3.808h-.075c-.273-.551-.835-1.362-2.182-1.362-1.765 0-3.152 1.382-3.152 3.928 0 2.515 1.347 3.942 3.147 3.942zm.502-1.476c-1.188 0-1.815-1.044-1.815-2.476 0-1.422.617-2.441 1.815-2.441 1.158 0 1.795.959 1.795 2.441 0 1.481-.647 2.476-1.795 2.476zM138.45 392h1.769v-1.203h.105c.283.557.875 1.337 2.187 1.337 1.8 0 3.147-1.427 3.147-3.942 0-2.546-1.387-3.928-3.152-3.928-1.347 0-1.909.811-2.182 1.362h-.075v-3.808h-1.799V392zm1.764-3.818c0-1.482.637-2.441 1.795-2.441 1.198 0 1.815 1.019 1.815 2.441 0 1.432-.627 2.476-1.815 2.476-1.148 0-1.795-.995-1.795-2.476zm7.833 6.682c1.402 0 2.213-.721 2.645-1.939l3.068-8.551-1.924-.01-1.765 5.767h-.08l-1.76-5.767h-1.909l2.769 7.795-.154.413c-.333.87-.86.929-1.645.701l-.418 1.402c.244.099.681.189 1.173.189z" fill="#fff"/>
  <path stroke="#444" d="M4 358.5h295"/>
  <defs>
    <linearGradient id="main-gradient" x1="50" y1="39.5" x2="287.5" y2="560" gradientUnits="userSpaceOnUse">
      <stop stop-color="#88FFEA"/>
      <stop offset=".323" stop-color="#FF4ECD"/>
      <stop offset="1" stop-color="#1A75FF"/>
    </linearGradient>
    <linearGradient id="main-silver" gradientUnits="userSpaceOnUse" x1="96.9%" y1="102.75%" x2="3.1%" y2="-2.75%">
      <stop offset=".245" stop-color="#828282"/>
      <stop offset=".52" stop-color="#FFF"/>
      <stop offset=".726" stop-color="#BCBCBA"/>
      <stop offset=".94" stop-color="#4F4F4F"/>
    </linearGradient>
    <linearGradient id="main-gold" gradientUnits="userSpaceOnUse" x1="96.9%" y1="102.75%" x2="3.1%" y2="-2.75%">
      <stop offset=".259" stop-color="#B1872F"/>
      <stop offset=".447" stop-color="#FC6"/>
      <stop offset=".643" stop-color="#FC6"/>
      <stop offset=".94" stop-color="#B1872F"/>
    </linearGradient>
    <linearGradient id="main-paint0_linear" x1="208.52" y1="387.348" x2="208.52" y2="379.969" gradientUnits="userSpaceOnUse">
      <stop stop-opacity=".15"/>
      <stop offset=".3" stop-opacity=".06"/>
      <stop offset="1" stop-opacity=".03"/>
    </linearGradient>
    <linearGradient id="main-paint1_linear" x1="218.705" y1="389.731" x2="213.632" y2="394.896" gradientUnits="userSpaceOnUse">
      <stop stop-opacity=".15"/>
      <stop offset=".3" stop-opacity=".06"/>
      <stop offset="1" stop-opacity=".03"/>
    </linearGradient>
    <linearGradient id="main-paint2_linear" x1="218.631" y1="391.217" x2="219.369" y2="383.93" gradientUnits="userSpaceOnUse">
      <stop stop-opacity=".15"/>
      <stop offset=".3" stop-opacity=".06"/>
      <stop offset="1" stop-opacity=".03"/>
    </linearGradient>
    <clipPath id="main-clip0">
      <path fill="#fff" transform="translate(204.602 375.892)" d="M0 0h20.62v20.62H0z"/>
    </clipPath>
  </defs>
</svg>
